<svg width="35" height="35" viewBox="0 0 35 35" fill="none" xmlns="http://www.w3.org/2000/svg">
<g id="&#240;&#159;&#166;&#134; icon &#34;post add&#34;">
<path id="Vector" d="M24.5 26.25H8.75V10.5H19.25V8.75H8.75C7.7875 8.75 7 9.5375 7 10.5V26.25C7 27.2125 7.7875 28 8.75 28H24.5C25.4625 28 26.25 27.2125 26.25 26.25V15.75H24.5V26.25Z" fill="white"/>
<path id="Vector_2" d="M12.25 14V15.75H19.25H21V14H12.25Z" fill="white"/>
<path id="Vector_3" d="M12.25 17.5H21V19.25H12.25V17.5Z" fill="white"/>
<path id="Vector_4" d="M12.25 21H21V22.75H12.25V21Z" fill="white"/>
<path id="Vector_5" d="M26.25 5.25H24.5V8.75H21V10.5H24.5V14H26.25V10.5H29.75V8.75H26.25V5.25Z" fill="white"/>
</g>
</svg>
