<svg width="280" height="225" viewBox="0 0 280 225" fill="none" xmlns="http://www.w3.org/2000/svg">
<g opacity="0.4">
<g filter="url(#filter0_f_280_1400)">
<g opacity="0.67" filter="url(#filter1_f_280_1400)">
<path d="M139.185 74.8057C130.679 87.5235 107.492 104.583 120.209 113.089C132.927 121.596 197.676 138.726 218.264 120.599C226.77 107.881 197.816 81.1434 185.099 72.637C172.381 64.1306 147.692 62.0879 139.185 74.8057Z" fill="url(#paint0_linear_280_1400)" fill-opacity="0.3"/>
</g>
<g filter="url(#filter2_ii_280_1400)">
<path fill-rule="evenodd" clip-rule="evenodd" d="M167.056 113.432L167.056 113.434L188.682 107.979C199.446 105.264 205.97 94.3368 203.255 83.573C200.54 72.8091 189.613 66.2843 178.85 68.9994L177.782 69.2688C174.004 70.2216 170.721 72.1334 168.128 74.6786C161.218 63.9597 148.01 58.3187 134.959 61.6106L133.491 61.981C117.935 65.9049 108.505 81.6965 112.429 97.2525C116.353 112.808 132.145 122.238 147.701 118.314L167.056 113.432Z" fill="white"/>
</g>
<path d="M143.348 126.034L143.481 129.85C143.555 131.958 145.32 133.776 147.425 133.912C149.529 134.047 151.175 132.449 151.102 130.341C151.028 128.234 149.262 126.415 147.158 126.28L143.348 126.034Z" fill="url(#paint1_radial_280_1400)"/>
<path d="M164.077 120.806L164.21 124.621C164.284 126.729 166.049 128.547 168.154 128.683C170.258 128.818 171.904 127.22 171.831 125.113C171.757 123.005 169.991 121.187 167.887 121.051L164.077 120.806Z" fill="url(#paint2_radial_280_1400)"/>
<path d="M184.805 115.577L184.939 119.393C185.012 121.5 186.778 123.319 188.882 123.454C190.987 123.59 192.633 121.991 192.559 119.884C192.486 117.777 190.72 115.958 188.616 115.823L184.805 115.577Z" fill="url(#paint3_radial_280_1400)"/>
<path d="M204.63 110.576L204.764 114.392C204.837 116.499 206.603 118.318 208.707 118.453C210.812 118.589 212.458 116.991 212.384 114.883C212.311 112.776 210.545 110.957 208.441 110.822L204.63 110.576Z" fill="url(#paint4_radial_280_1400)"/>
<path d="M197.534 126.146L197.667 129.962C197.741 132.069 199.506 133.888 201.611 134.023C203.715 134.159 205.361 132.56 205.288 130.453C205.214 128.345 203.448 126.527 201.344 126.391L197.534 126.146Z" fill="url(#paint5_radial_280_1400)"/>
<path d="M179.397 130.721L179.53 134.537C179.604 136.644 181.369 138.463 183.474 138.598C185.578 138.734 187.224 137.135 187.15 135.028C187.077 132.92 185.311 131.102 183.207 130.966L179.397 130.721Z" fill="url(#paint6_radial_280_1400)"/>
<path d="M161.259 135.296L161.392 139.112C161.466 141.219 163.232 143.038 165.336 143.173C167.44 143.309 169.086 141.71 169.013 139.603C168.939 137.496 167.174 135.677 165.069 135.542L161.259 135.296Z" fill="url(#paint7_radial_280_1400)"/>
</g>
<g filter="url(#filter3_f_280_1400)">
<g opacity="0.67" filter="url(#filter4_f_280_1400)">
<path d="M89.7429 91.8348C80.6895 105.37 56.011 123.527 69.5467 132.58C83.0823 141.634 151.995 159.866 173.907 140.573C182.96 127.037 152.145 98.58 138.609 89.5266C125.073 80.4732 98.7963 78.2991 89.7429 91.8348Z" fill="url(#paint8_linear_280_1400)" fill-opacity="0.3"/>
</g>
<g filter="url(#filter5_ii_280_1400)">
<path fill-rule="evenodd" clip-rule="evenodd" d="M119.406 132.945L119.406 132.947L142.422 127.141C153.878 124.251 160.823 112.622 157.933 101.166C155.043 89.7097 143.414 82.7653 131.958 85.655L130.821 85.9417C126.801 86.9559 123.307 88.9905 120.547 91.6995C113.193 80.2912 99.1349 74.2874 85.245 77.7911L83.6822 78.1853C67.1258 82.3615 57.0897 99.1686 61.2659 115.725C65.4421 132.281 82.2492 142.318 98.8056 138.141L119.406 132.945Z" fill="white"/>
</g>
<path d="M94.1733 146.358L94.3152 150.419C94.3936 152.662 96.2728 154.597 98.5125 154.742C100.752 154.886 102.504 153.185 102.426 150.942C102.347 148.699 100.468 146.763 98.2286 146.619L94.1733 146.358Z" fill="url(#paint9_radial_280_1400)"/>
<path d="M116.235 140.793L116.377 144.854C116.456 147.097 118.335 149.032 120.575 149.177C122.814 149.321 124.566 147.62 124.488 145.377C124.409 143.134 122.53 141.199 120.291 141.054L116.235 140.793Z" fill="url(#paint10_radial_280_1400)"/>
<path d="M138.297 135.228L138.439 139.289C138.517 141.532 140.396 143.467 142.636 143.612C144.876 143.756 146.628 142.055 146.549 139.812C146.471 137.569 144.592 135.634 142.352 135.489L138.297 135.228Z" fill="url(#paint11_radial_280_1400)"/>
<path d="M159.397 129.906L159.539 133.967C159.617 136.21 161.496 138.145 163.736 138.289C165.976 138.434 167.728 136.732 167.65 134.489C167.571 132.247 165.692 130.311 163.452 130.167L159.397 129.906Z" fill="url(#paint12_radial_280_1400)"/>
<path d="M151.844 146.477L151.986 150.538C152.065 152.781 153.944 154.716 156.183 154.86C158.423 155.005 160.175 153.303 160.097 151.06C160.018 148.817 158.139 146.882 155.9 146.738L151.844 146.477Z" fill="url(#paint13_radial_280_1400)"/>
<path d="M132.54 151.346L132.682 155.407C132.76 157.65 134.64 159.585 136.879 159.73C139.119 159.874 140.871 158.173 140.793 155.93C140.714 153.687 138.835 151.751 136.595 151.607L132.54 151.346Z" fill="url(#paint14_radial_280_1400)"/>
<path d="M113.236 156.215L113.378 160.276C113.457 162.519 115.336 164.455 117.575 164.599C119.815 164.743 121.567 163.042 121.489 160.799C121.41 158.556 119.531 156.621 117.292 156.476L113.236 156.215Z" fill="url(#paint15_radial_280_1400)"/>
</g>
</g>
<defs>
<filter id="filter0_f_280_1400" x="3.32129" y="-57" width="314.679" height="314.679" filterUnits="userSpaceOnUse" color-interpolation-filters="sRGB">
<feFlood flood-opacity="0" result="BackgroundImageFix"/>
<feBlend mode="normal" in="SourceGraphic" in2="BackgroundImageFix" result="shape"/>
<feGaussianBlur stdDeviation="30" result="effect1_foregroundBlur_280_1400"/>
</filter>
<filter id="filter1_f_280_1400" x="71.4785" y="20.7622" width="193.324" height="152.846" filterUnits="userSpaceOnUse" color-interpolation-filters="sRGB">
<feFlood flood-opacity="0" result="BackgroundImageFix"/>
<feBlend mode="normal" in="SourceGraphic" in2="BackgroundImageFix" result="shape"/>
<feGaussianBlur stdDeviation="22.5" result="effect1_foregroundBlur_280_1400"/>
</filter>
<filter id="filter2_ii_280_1400" x="93.54" y="45.6751" width="118.331" height="84.5284" filterUnits="userSpaceOnUse" color-interpolation-filters="sRGB">
<feFlood flood-opacity="0" result="BackgroundImageFix"/>
<feBlend mode="normal" in="SourceGraphic" in2="BackgroundImageFix" result="shape"/>
<feColorMatrix in="SourceAlpha" type="matrix" values="0 0 0 0 0 0 0 0 0 0 0 0 0 0 0 0 0 0 127 0" result="hardAlpha"/>
<feOffset dx="8" dy="-15"/>
<feGaussianBlur stdDeviation="15"/>
<feComposite in2="hardAlpha" operator="arithmetic" k2="-1" k3="1"/>
<feColorMatrix type="matrix" values="0 0 0 0 0 0 0 0 0 0 0 0 0 0 0 0 0 0 0.2 0"/>
<feBlend mode="normal" in2="shape" result="effect1_innerShadow_280_1400"/>
<feColorMatrix in="SourceAlpha" type="matrix" values="0 0 0 0 0 0 0 0 0 0 0 0 0 0 0 0 0 0 127 0" result="hardAlpha"/>
<feOffset dx="-18" dy="11"/>
<feGaussianBlur stdDeviation="15"/>
<feComposite in2="hardAlpha" operator="arithmetic" k2="-1" k3="1"/>
<feColorMatrix type="matrix" values="0 0 0 0 1 0 0 0 0 1 0 0 0 0 1 0 0 0 1 0"/>
<feBlend mode="normal" in2="effect1_innerShadow_280_1400" result="effect2_innerShadow_280_1400"/>
</filter>
<filter id="filter3_f_280_1400" x="-50.9995" y="-44.5887" width="327.199" height="327.199" filterUnits="userSpaceOnUse" color-interpolation-filters="sRGB">
<feFlood flood-opacity="0" result="BackgroundImageFix"/>
<feBlend mode="normal" in="SourceGraphic" in2="BackgroundImageFix" result="shape"/>
<feGaussianBlur stdDeviation="30" result="effect1_foregroundBlur_280_1400"/>
</filter>
<filter id="filter4_f_280_1400" x="20.5757" y="37.2097" width="199.969" height="156.887" filterUnits="userSpaceOnUse" color-interpolation-filters="sRGB">
<feFlood flood-opacity="0" result="BackgroundImageFix"/>
<feBlend mode="normal" in="SourceGraphic" in2="BackgroundImageFix" result="shape"/>
<feGaussianBlur stdDeviation="22.5" result="effect1_foregroundBlur_280_1400"/>
</filter>
<filter id="filter5_ii_280_1400" x="42.3193" y="61.7953" width="124.269" height="88.2923" filterUnits="userSpaceOnUse" color-interpolation-filters="sRGB">
<feFlood flood-opacity="0" result="BackgroundImageFix"/>
<feBlend mode="normal" in="SourceGraphic" in2="BackgroundImageFix" result="shape"/>
<feColorMatrix in="SourceAlpha" type="matrix" values="0 0 0 0 0 0 0 0 0 0 0 0 0 0 0 0 0 0 127 0" result="hardAlpha"/>
<feOffset dx="8" dy="-15"/>
<feGaussianBlur stdDeviation="15"/>
<feComposite in2="hardAlpha" operator="arithmetic" k2="-1" k3="1"/>
<feColorMatrix type="matrix" values="0 0 0 0 0 0 0 0 0 0 0 0 0 0 0 0 0 0 0.2 0"/>
<feBlend mode="normal" in2="shape" result="effect1_innerShadow_280_1400"/>
<feColorMatrix in="SourceAlpha" type="matrix" values="0 0 0 0 0 0 0 0 0 0 0 0 0 0 0 0 0 0 127 0" result="hardAlpha"/>
<feOffset dx="-18" dy="11"/>
<feGaussianBlur stdDeviation="15"/>
<feComposite in2="hardAlpha" operator="arithmetic" k2="-1" k3="1"/>
<feColorMatrix type="matrix" values="0 0 0 0 1 0 0 0 0 1 0 0 0 0 1 0 0 0 1 0"/>
<feBlend mode="normal" in2="effect1_innerShadow_280_1400" result="effect2_innerShadow_280_1400"/>
</filter>
<linearGradient id="paint0_linear_280_1400" x1="207.796" y1="128.419" x2="125.712" y2="72.7608" gradientUnits="userSpaceOnUse">
<stop stop-color="#254659"/>
<stop offset="1" stop-color="#023553"/>
</linearGradient>
<radialGradient id="paint1_radial_280_1400" cx="0" cy="0" r="1" gradientUnits="userSpaceOnUse" gradientTransform="translate(151.64 131.453) rotate(-160.013) scale(9.97194 7.34671)">
<stop stop-color="#008CB9"/>
<stop offset="1" stop-color="#5CC4E5"/>
</radialGradient>
<radialGradient id="paint2_radial_280_1400" cx="0" cy="0" r="1" gradientUnits="userSpaceOnUse" gradientTransform="translate(172.369 126.224) rotate(-160.013) scale(9.97194 7.34671)">
<stop stop-color="#008CB9"/>
<stop offset="1" stop-color="#5CC4E5"/>
</radialGradient>
<radialGradient id="paint3_radial_280_1400" cx="0" cy="0" r="1" gradientUnits="userSpaceOnUse" gradientTransform="translate(193.097 120.995) rotate(-160.013) scale(9.97194 7.34671)">
<stop stop-color="#008CB9"/>
<stop offset="1" stop-color="#5CC4E5"/>
</radialGradient>
<radialGradient id="paint4_radial_280_1400" cx="0" cy="0" r="1" gradientUnits="userSpaceOnUse" gradientTransform="translate(212.923 115.995) rotate(-160.013) scale(9.97194 7.34671)">
<stop stop-color="#008CB9"/>
<stop offset="1" stop-color="#5CC4E5"/>
</radialGradient>
<radialGradient id="paint5_radial_280_1400" cx="0" cy="0" r="1" gradientUnits="userSpaceOnUse" gradientTransform="translate(205.826 131.564) rotate(-160.013) scale(9.97194 7.34671)">
<stop stop-color="#008CB9"/>
<stop offset="1" stop-color="#5CC4E5"/>
</radialGradient>
<radialGradient id="paint6_radial_280_1400" cx="0" cy="0" r="1" gradientUnits="userSpaceOnUse" gradientTransform="translate(187.689 136.139) rotate(-160.013) scale(9.97194 7.34671)">
<stop stop-color="#008CB9"/>
<stop offset="1" stop-color="#5CC4E5"/>
</radialGradient>
<radialGradient id="paint7_radial_280_1400" cx="0" cy="0" r="1" gradientUnits="userSpaceOnUse" gradientTransform="translate(169.551 140.714) rotate(-160.013) scale(9.97194 7.34671)">
<stop stop-color="#008CB9"/>
<stop offset="1" stop-color="#5CC4E5"/>
</radialGradient>
<linearGradient id="paint8_linear_280_1400" x1="162.766" y1="148.896" x2="75.4037" y2="89.6583" gradientUnits="userSpaceOnUse">
<stop stop-color="#254659"/>
<stop offset="1" stop-color="#023553"/>
</linearGradient>
<radialGradient id="paint9_radial_280_1400" cx="0" cy="0" r="1" gradientUnits="userSpaceOnUse" gradientTransform="translate(102.999 152.125) rotate(-160.013) scale(10.6132 7.81918)">
<stop stop-color="#008CB9"/>
<stop offset="1" stop-color="#5CC4E5"/>
</radialGradient>
<radialGradient id="paint10_radial_280_1400" cx="0" cy="0" r="1" gradientUnits="userSpaceOnUse" gradientTransform="translate(125.061 146.56) rotate(-160.013) scale(10.6132 7.81918)">
<stop stop-color="#008CB9"/>
<stop offset="1" stop-color="#5CC4E5"/>
</radialGradient>
<radialGradient id="paint11_radial_280_1400" cx="0" cy="0" r="1" gradientUnits="userSpaceOnUse" gradientTransform="translate(147.122 140.995) rotate(-160.013) scale(10.6132 7.81918)">
<stop stop-color="#008CB9"/>
<stop offset="1" stop-color="#5CC4E5"/>
</radialGradient>
<radialGradient id="paint12_radial_280_1400" cx="0" cy="0" r="1" gradientUnits="userSpaceOnUse" gradientTransform="translate(168.222 135.673) rotate(-160.013) scale(10.6132 7.81918)">
<stop stop-color="#008CB9"/>
<stop offset="1" stop-color="#5CC4E5"/>
</radialGradient>
<radialGradient id="paint13_radial_280_1400" cx="0" cy="0" r="1" gradientUnits="userSpaceOnUse" gradientTransform="translate(160.67 152.243) rotate(-160.013) scale(10.6132 7.81917)">
<stop stop-color="#008CB9"/>
<stop offset="1" stop-color="#5CC4E5"/>
</radialGradient>
<radialGradient id="paint14_radial_280_1400" cx="0" cy="0" r="1" gradientUnits="userSpaceOnUse" gradientTransform="translate(141.365 157.113) rotate(-160.013) scale(10.6132 7.81917)">
<stop stop-color="#008CB9"/>
<stop offset="1" stop-color="#5CC4E5"/>
</radialGradient>
<radialGradient id="paint15_radial_280_1400" cx="0" cy="0" r="1" gradientUnits="userSpaceOnUse" gradientTransform="translate(122.062 161.982) rotate(-160.013) scale(10.6132 7.81917)">
<stop stop-color="#008CB9"/>
<stop offset="1" stop-color="#5CC4E5"/>
</radialGradient>
</defs>
</svg>
