<svg width="1110" height="1150" viewBox="0 0 1110 1150" fill="none" xmlns="http://www.w3.org/2000/svg">
<path d="M834.221 1315.89C730.249 1330.78 648.798 1303.56 601.064 1247.68C553.331 1191.79 539.182 1107.09 570.14 1006.72C601.099 906.355 671.287 809.414 759.768 733.836C848.249 658.258 954.971 604.087 1058.95 589.199C1162.92 574.312 1244.37 601.529 1292.1 657.412C1339.84 713.295 1353.99 797.999 1323.03 898.365C1292.07 998.735 1221.88 1095.68 1133.4 1171.25C1044.92 1246.83 938.196 1301 834.221 1315.89Z" stroke="url(#paint0_linear_19_1433)" stroke-width="1.29394"/>
<path d="M822.417 1302.5C718.325 1317.41 636.675 1290.17 588.794 1234.11C540.913 1178.06 526.774 1093.15 557.768 992.671C588.762 892.187 659.018 795.168 747.555 719.541C836.093 643.915 942.903 589.69 1047 574.786C1151.09 559.881 1232.74 587.119 1280.62 643.175C1328.5 699.23 1342.64 784.133 1311.65 884.616C1280.65 985.1 1210.4 1082.12 1121.86 1157.75C1033.32 1233.37 926.511 1287.6 822.417 1302.5Z" stroke="url(#paint1_linear_19_1433)" stroke-width="0.258789"/>
<path d="M811.698 1365.49C689.953 1380.54 593.589 1346.38 536.124 1279.1C478.658 1211.82 459.978 1111.3 493.88 993.408C527.784 875.508 607.842 762.629 709.899 675.454C811.956 588.28 935.963 526.852 1057.71 511.797C1179.46 496.742 1275.82 530.907 1333.29 598.183C1390.75 665.459 1409.43 765.979 1375.53 883.874C1341.63 1001.77 1261.57 1114.65 1159.51 1201.83C1057.46 1289 933.449 1350.43 811.698 1365.49Z" stroke="url(#paint2_linear_19_1433)" stroke-width="1.29394"/>
<path d="M811.698 1365.49C689.953 1380.54 593.589 1346.38 536.124 1279.1C478.658 1211.82 459.978 1111.3 493.88 993.408C527.784 875.508 607.842 762.629 709.899 675.454C811.956 588.28 935.963 526.852 1057.71 511.797C1179.46 496.742 1275.82 530.907 1333.29 598.183C1390.75 665.459 1409.43 765.979 1375.53 883.874C1341.63 1001.77 1261.57 1114.65 1159.51 1201.83C1057.46 1289 933.449 1350.43 811.698 1365.49Z" stroke="url(#paint3_linear_19_1433)" stroke-opacity="0.2" stroke-width="1.29394"/>
<path d="M800.913 1352.82C674.425 1362.32 571.804 1320.87 508.087 1246.28C444.37 1171.68 419.479 1063.85 448.631 940.397C477.784 816.94 555.462 701.288 657.509 614.123C759.556 526.957 885.929 468.314 1012.43 458.819C1138.91 449.325 1241.53 490.767 1305.25 565.363C1368.97 639.958 1393.86 747.795 1364.71 871.244C1335.55 994.702 1257.88 1110.35 1155.83 1197.52C1053.78 1284.68 927.41 1343.33 800.913 1352.82Z" stroke="url(#paint4_linear_19_1433)" stroke-width="1.29394"/>
<rect x="770.202" y="859.694" width="4.91407" height="4.91407" transform="rotate(-85.503 770.202 859.694)" fill="#00F0FF" fill-opacity="0.5"/>
<rect x="770.402" y="661.425" width="2.02623" height="2.02624" transform="rotate(-85.503 770.402 661.425)" fill="#00F0FF"/>
<rect x="843.418" y="608.272" width="3.06444" height="3.06445" transform="rotate(-85.503 843.418 608.272)" fill="#00F0FF"/>
<rect x="852.213" y="652.937" width="1.81614" height="1.81614" transform="rotate(-85.503 852.213 652.937)" fill="#00F0FF"/>
<rect x="859.943" y="943.178" width="4.91407" height="4.91407" transform="rotate(-85.503 859.943 943.178)" fill="#00F0FF"/>
<rect x="717.365" y="1030.53" width="4.91407" height="4.91407" transform="rotate(-85.503 717.365 1030.53)" fill="#0500FF" fill-opacity="0.5"/>
<rect x="677.682" y="879.539" width="3.43443" height="3.43444" transform="rotate(-85.503 677.682 879.539)" fill="#3DFFFB"/>
<rect x="1080.57" y="1098.74" width="6.38829" height="6.3883" transform="rotate(-85.503 1080.57 1098.74)" fill="#0500FF" fill-opacity="0.5"/>
<rect width="4.5702" height="4.5702" transform="matrix(-0.996921 -0.0784134 0.0783987 -0.996922 1036.56 757.808)" fill="#00D1FF"/>
<rect width="5.49007" height="5.49007" transform="matrix(0.958326 0.285676 0.285676 -0.958326 844.643 857.996)" fill="#001AFF" fill-opacity="0.5"/>
<rect x="874.896" y="723.525" width="5.8419" height="5.8419" transform="rotate(-163.401 874.896 723.525)" fill="#0066FF" fill-opacity="0.5"/>
<rect x="1054.86" y="630.347" width="4.22361" height="4.22361" transform="rotate(-175.503 1054.86 630.347)" fill="#0500FF" fill-opacity="0.5"/>
<rect width="3.27281" height="3.27281" transform="matrix(0.0784165 -0.996921 0.996922 0.0783957 811.833 865.028)" fill="#00FFF0" fill-opacity="0.6"/>
<rect x="783.049" y="1080.89" width="3.68718" height="3.68718" transform="rotate(-85.503 783.049 1080.89)" fill="#00FFF0"/>
<rect width="4.07109" height="4.07109" transform="matrix(-0.0784062 0.996921 0.996922 0.078406 659.527 822.866)" fill="#00FFF0"/>
<rect x="740.942" y="765.198" width="4.33199" height="4.33199" transform="rotate(-85.503 740.942 765.198)" fill="#00FFF0"/>
<rect width="4.33199" height="4.33199" transform="matrix(0.0783984 -0.996922 0.996921 0.0784138 1057.8 934.807)" fill="#00FFF0" fill-opacity="0.5"/>
<rect x="945.118" y="986.579" width="2.37476" height="2.37476" transform="rotate(-85.503 945.118 986.579)" fill="#00FFF0" fill-opacity="0.5"/>
<rect x="867.278" y="1133.06" width="4.33199" height="4.33199" transform="rotate(-120.813 867.278 1133.06)" fill="#0500FF" fill-opacity="0.5"/>
<rect x="822.956" y="1033.79" width="3.02452" height="3.02452" transform="rotate(-85.503 822.956 1033.79)" fill="#00D1FF" fill-opacity="0.6"/>
<rect x="852.649" y="1058.01" width="8.15041" height="8.15041" transform="rotate(-85.503 852.649 1058.01)" fill="#6100FF" fill-opacity="0.5"/>
<g opacity="0.5">
<rect x="648.404" y="749.048" width="3.27281" height="3.27281" transform="rotate(-85.5031 648.404 749.048)" fill="#00FFF0" fill-opacity="0.6"/>
<rect width="3.68718" height="3.68718" transform="matrix(0.0784151 -0.996921 0.996922 0.0783971 619.619 964.906)" fill="#00FFF0"/>
<rect width="4.07109" height="4.07109" transform="matrix(-0.078406 0.996922 0.996921 0.0784062 496.098 706.889)" fill="#00FFF0"/>
<rect width="4.33199" height="4.33199" transform="matrix(0.0783982 -0.996922 0.996921 0.078414 577.512 649.218)" fill="#00FFF0"/>
<rect x="894.366" y="818.826" width="4.33199" height="4.33199" transform="rotate(-85.5031 894.366 818.826)" fill="#00FFF0" fill-opacity="0.5"/>
<rect x="781.688" y="870.599" width="2.37476" height="2.37476" transform="rotate(-85.5031 781.688 870.599)" fill="#00FFF0" fill-opacity="0.5"/>
<rect x="703.849" y="1017.08" width="4.33199" height="4.33199" transform="rotate(-120.813 703.849 1017.08)" fill="#0500FF" fill-opacity="0.5"/>
<rect x="659.527" y="917.809" width="3.02452" height="3.02452" transform="rotate(-85.5031 659.527 917.809)" fill="#00D1FF" fill-opacity="0.6"/>
<rect width="8.15041" height="8.15041" transform="matrix(0.0784018 -0.996922 0.996921 0.0784103 689.22 942.036)" fill="#6100FF" fill-opacity="0.5"/>
</g>
<defs>
<linearGradient id="paint0_linear_19_1433" x1="669.352" y1="627.982" x2="970.712" y2="980.792" gradientUnits="userSpaceOnUse">
<stop stop-color="#8FBCFF" stop-opacity="0.6"/>
<stop offset="1" stop-color="#8FBCFF" stop-opacity="0"/>
</linearGradient>
<linearGradient id="paint1_linear_19_1433" x1="731.199" y1="700.393" x2="1121.94" y2="1157.85" gradientUnits="userSpaceOnUse">
<stop stop-color="#8FBCFF" stop-opacity="0.6"/>
<stop offset="1" stop-color="#8FBCFF" stop-opacity="0"/>
</linearGradient>
<linearGradient id="paint2_linear_19_1433" x1="587.762" y1="532.465" x2="1000.85" y2="1016.07" gradientUnits="userSpaceOnUse">
<stop stop-color="white" stop-opacity="0.6"/>
<stop offset="0.34375" stop-color="#8FBCFF" stop-opacity="0.6"/>
<stop offset="1" stop-color="#8FBCFF" stop-opacity="0"/>
</linearGradient>
<linearGradient id="paint3_linear_19_1433" x1="965.2" y1="536.95" x2="1004.32" y2="706.402" gradientUnits="userSpaceOnUse">
<stop stop-color="#FF48D7"/>
<stop offset="0.234164" stop-color="white" stop-opacity="0.765836"/>
<stop offset="1" stop-color="#FF48D7" stop-opacity="0"/>
</linearGradient>
<linearGradient id="paint4_linear_19_1433" x1="635.399" y1="588.236" x2="934.465" y2="938.359" gradientUnits="userSpaceOnUse">
<stop stop-color="#8FBCFF" stop-opacity="0.6"/>
<stop offset="1" stop-color="#8FBCFF" stop-opacity="0"/>
</linearGradient>
</defs>
</svg>
