<svg width="502" height="181" viewBox="0 0 502 181" fill="none" xmlns="http://www.w3.org/2000/svg">
<path d="M67.483 129.145H26.671L12.709 173H2.148L42.244 47.7H51.731L92.543 173H81.803L67.483 129.145ZM29.535 119.3H64.798L46.898 63.273L29.535 119.3ZM159.09 165.661C152.885 171.747 144.233 174.79 133.135 174.79C126.453 174.79 120.247 173.537 114.519 171.031C108.791 168.525 104.137 164.587 100.557 159.217C97.0968 153.847 95.3664 147.164 95.3664 139.169V82.963C95.3664 74.6097 96.6791 67.927 99.3044 62.915C102.049 57.7837 105.927 53.6667 110.939 50.564C116.19 47.5807 122.634 46.089 130.271 46.089C139.579 46.089 147.992 48.058 155.51 51.996L152.646 58.798C145.844 56.292 139.4 55.039 133.314 55.039C126.035 55.039 119.531 56.829 113.803 60.409C108.195 63.989 105.39 70.97 105.39 81.352V139.527C105.39 147.522 107.956 153.787 113.087 158.322C118.338 162.857 124.961 165.124 132.956 165.124C141.071 165.124 147.515 162.797 152.288 158.143C157.062 153.489 159.448 147.343 159.448 139.706V129.145H147.634L144.233 119.3H168.935V173H161.596L159.09 165.661ZM266.331 139.885C266.331 151.938 262.632 160.828 255.233 166.556C247.954 172.165 239.183 174.969 228.92 174.969C222.476 174.969 216.39 173.835 210.662 171.568C204.934 169.181 200.22 165.363 196.521 160.112C192.941 154.861 191.151 148.119 191.151 139.885V82.247C191.151 69.9557 194.492 60.6477 201.175 54.323C207.977 47.9983 217.285 44.836 229.099 44.836C240.913 44.836 250.042 48.1773 256.486 54.86C263.049 61.5427 266.331 70.7313 266.331 82.426V139.885ZM256.486 80.636C256.486 71.9247 253.92 65.3613 248.789 60.946C243.777 56.5307 237.094 54.323 228.741 54.323C220.388 54.323 213.705 56.5307 208.693 60.946C203.681 65.3613 201.175 71.9247 201.175 80.636V139.706C201.175 148.179 203.741 154.623 208.872 159.038C214.123 163.334 220.746 165.482 228.741 165.482C236.856 165.482 243.479 163.394 248.61 159.217C253.861 154.921 256.486 148.358 256.486 139.527V80.636ZM344.523 128.608C342.375 128.966 339.989 129.145 337.363 129.145H302.1V173H292.076V47.7H336.11C347.447 47.7 355.86 51.1607 361.349 58.082C366.958 65.0033 369.762 74.3113 369.762 86.006C369.762 94.956 368.748 102.892 366.719 109.813C364.81 116.734 360.574 121.985 354.01 125.565L369.941 173H359.738L344.523 128.608ZM337.542 119.3C344.225 119.3 349.177 117.51 352.399 113.93C355.741 110.35 357.769 106.293 358.485 101.758C359.321 97.2233 359.738 92.1517 359.738 86.543C359.738 76.7577 357.71 69.4187 353.652 64.526C349.595 59.6333 343.986 57.187 336.826 57.187H302.1V119.3H337.542ZM446.634 129.145H405.822L391.86 173H381.299L421.395 47.7H430.882L471.694 173H460.954L446.634 129.145ZM408.686 119.3H443.949L426.049 63.273L408.686 119.3Z" fill="#CAB188"/>
<path d="M230 57.625L242.5 110.5L230 163.375" stroke="#BBBC8D" stroke-width="1.5" stroke-linecap="round" stroke-linejoin="round"/>
<path d="M230 57.625L217.5 110.5L230 163.375" stroke="#BBBC8D" stroke-width="1.5" stroke-linecap="round" stroke-linejoin="round"/>
<path d="M230 163.375L259.167 110.5L230 57.625L200.833 110.5L230 163.375Z" stroke="#BBBC8D" stroke-width="1.5" stroke-linecap="round" stroke-linejoin="round"/>
<path d="M200.833 110.5H259.167" stroke="#BBBC8D" stroke-width="1.5" stroke-linecap="round" stroke-linejoin="round"/>
</svg>
