<svg width="1355" height="1491" viewBox="0 0 1355 1491" fill="none" xmlns="http://www.w3.org/2000/svg">
<path d="M307.221 1370.89C203.249 1385.78 121.799 1358.56 74.0646 1302.68C26.3307 1246.79 12.1818 1162.09 43.1397 1061.72C74.0987 961.355 144.288 864.414 232.768 788.836C321.249 713.258 427.971 659.087 531.947 644.199C635.919 629.312 717.369 656.529 765.103 712.412C812.837 768.295 826.986 852.999 796.028 953.365C765.069 1053.73 694.88 1150.68 606.399 1226.25C517.918 1301.83 411.196 1356 307.221 1370.89Z" stroke="url(#paint0_linear_19_1261)" stroke-width="1.29394"/>
<path d="M295.417 1357.5C191.325 1372.41 109.675 1345.17 61.7942 1289.11C13.9132 1233.06 -0.225581 1148.15 30.7683 1047.67C61.7624 947.187 132.018 850.168 220.555 774.541C309.093 698.915 415.903 644.69 519.996 629.786C624.089 614.881 705.738 642.119 753.619 698.175C801.5 754.23 815.639 839.134 784.645 939.616C753.651 1040.1 683.396 1137.12 594.858 1212.75C506.32 1288.37 399.511 1342.6 295.417 1357.5Z" stroke="url(#paint1_linear_19_1261)" stroke-width="0.258789"/>
<path d="M284.698 1420.49C162.953 1435.54 66.589 1401.38 9.1238 1334.1C-48.3414 1266.82 -67.0218 1166.3 -33.1199 1048.41C0.783706 930.508 80.8419 817.629 182.899 730.454C284.956 643.28 408.963 581.852 530.714 566.797C652.459 551.742 748.823 585.907 806.289 653.183C863.754 720.459 882.434 820.979 848.532 938.874C814.629 1056.77 734.57 1169.65 632.513 1256.83C530.456 1344 406.449 1405.43 284.698 1420.49Z" stroke="url(#paint2_linear_19_1261)" stroke-width="1.29394"/>
<path d="M284.698 1420.49C162.953 1435.54 66.589 1401.38 9.1238 1334.1C-48.3414 1266.82 -67.0218 1166.3 -33.1199 1048.41C0.783706 930.508 80.8419 817.629 182.899 730.454C284.956 643.28 408.963 581.852 530.714 566.797C652.459 551.742 748.823 585.907 806.289 653.183C863.754 720.459 882.434 820.979 848.532 938.874C814.629 1056.77 734.57 1169.65 632.513 1256.83C530.456 1344 406.449 1405.43 284.698 1420.49Z" stroke="url(#paint3_linear_19_1261)" stroke-opacity="0.2" stroke-width="1.29394"/>
<path d="M273.913 1407.82C147.425 1417.32 44.8046 1375.87 -18.9127 1301.28C-82.63 1226.68 -107.521 1118.85 -78.3691 995.397C-49.2158 871.94 28.4618 756.289 130.509 669.123C232.556 581.957 358.929 523.314 485.426 513.819C611.914 504.325 714.535 545.767 778.252 620.363C841.969 694.958 866.86 802.795 837.708 926.244C808.555 1049.7 730.877 1165.35 628.83 1252.52C526.783 1339.68 400.41 1398.33 273.913 1407.82Z" stroke="url(#paint4_linear_19_1261)" stroke-width="1.29394"/>
<rect x="243.202" y="914.694" width="4.91407" height="4.91407" transform="rotate(-85.503 243.202 914.694)" fill="#00F0FF" fill-opacity="0.5"/>
<rect x="243.403" y="716.425" width="2.02623" height="2.02624" transform="rotate(-85.503 243.403 716.425)" fill="#00F0FF"/>
<rect width="2.66099" height="2.66098" transform="matrix(-0.078406 0.996921 0.996922 0.0784061 642.985 679.049)" fill="#00F0FF"/>
<rect x="316.419" y="663.272" width="3.06444" height="3.06445" transform="rotate(-85.503 316.419 663.272)" fill="#00F0FF"/>
<rect x="325.214" y="707.937" width="1.81614" height="1.81614" transform="rotate(-85.503 325.214 707.937)" fill="#00F0FF"/>
<rect x="332.943" y="998.178" width="4.91407" height="4.91407" transform="rotate(-85.503 332.943 998.178)" fill="#00F0FF"/>
<rect x="190.366" y="1085.53" width="4.91407" height="4.91407" transform="rotate(-85.503 190.366 1085.53)" fill="#0500FF" fill-opacity="0.5"/>
<rect x="150.682" y="934.539" width="3.43443" height="3.43444" transform="rotate(-85.503 150.682 934.539)" fill="#3DFFFB"/>
<rect x="553.568" y="1153.74" width="6.38829" height="6.3883" transform="rotate(-85.503 553.568 1153.74)" fill="#0500FF" fill-opacity="0.5"/>
<rect width="6.82082" height="6.82082" transform="matrix(0.078411 -0.996921 0.996922 0.0784011 841.106 1035.53)" fill="#0066FF" fill-opacity="0.5"/>
<rect width="13.7755" height="13.7755" transform="matrix(0.0784036 -0.996922 0.996921 0.0784085 897.366 892.221)" fill="#0066FF" fill-opacity="0.5"/>
<rect width="6.41004" height="6.41004" transform="matrix(-0.0784061 0.996922 0.996922 0.0784061 741.018 694.178)" fill="#0066FF" fill-opacity="0.5"/>
<rect width="6.82082" height="6.82082" transform="matrix(0.078411 -0.996921 0.996922 0.0784011 902.048 695.803)" fill="#0066FF" fill-opacity="0.5"/>
<rect width="6.82082" height="6.82082" transform="matrix(0.0784011 -0.996922 0.996921 0.078411 926.401 1160.28)" fill="#0066FF" fill-opacity="0.5"/>
<rect x="728.162" y="1281.74" width="6.82083" height="6.82083" transform="rotate(-85.503 728.162 1281.74)" fill="#0500FF" fill-opacity="0.5"/>
<rect width="4.77521" height="4.7752" transform="matrix(0.078399 -0.996922 0.996921 0.0784131 762.406 1115.44)" fill="#0500FF" fill-opacity="0.5"/>
<rect x="782.025" y="1175.08" width="8.88223" height="8.88223" transform="rotate(-85.503 782.025 1175.08)" fill="#0500FF" fill-opacity="0.5"/>
<rect width="5.8419" height="5.8419" transform="matrix(-0.958331 -0.28566 0.285693 -0.958321 621.276 890.486)" fill="#0066FF" fill-opacity="0.5"/>
<rect width="4.5702" height="4.5702" transform="matrix(-0.996921 -0.0784134 0.0783987 -0.996922 509.562 812.808)" fill="#00D1FF"/>
<rect width="5.49007" height="5.49007" transform="matrix(0.958326 0.285676 0.285676 -0.958326 317.643 912.996)" fill="#001AFF" fill-opacity="0.5"/>
<rect x="347.896" y="778.525" width="5.8419" height="5.8419" transform="rotate(-163.401 347.896 778.525)" fill="#0066FF" fill-opacity="0.5"/>
<rect width="5.8419" height="5.8419" transform="matrix(-0.958331 -0.28566 0.285693 -0.958321 740.97 841.488)" fill="#0066FF" fill-opacity="0.5"/>
<rect x="527.857" y="685.348" width="4.22361" height="4.22361" transform="rotate(-175.503 527.857 685.348)" fill="#0500FF" fill-opacity="0.5"/>
<rect width="4.08708" height="4.08708" transform="matrix(-0.958333 -0.285652 0.2857 -0.958319 674.027 970.687)" fill="#0500FF" fill-opacity="0.5"/>
<rect x="727.449" y="964.971" width="7.60226" height="7.60226" transform="rotate(-163.401 727.449 964.971)" fill="#0500FF" fill-opacity="0.5"/>
<rect width="3.27281" height="3.27281" transform="matrix(0.0784165 -0.996921 0.996922 0.0783957 284.834 920.029)" fill="#00FFF0" fill-opacity="0.6"/>
<rect x="256.049" y="1135.89" width="3.68718" height="3.68718" transform="rotate(-85.503 256.049 1135.89)" fill="#00FFF0"/>
<rect width="4.07109" height="4.07109" transform="matrix(-0.0784062 0.996921 0.996922 0.078406 132.527 877.866)" fill="#00FFF0"/>
<rect x="213.942" y="820.198" width="4.33199" height="4.33199" transform="rotate(-85.503 213.942 820.198)" fill="#00FFF0"/>
<rect width="4.33199" height="4.33199" transform="matrix(0.0783984 -0.996922 0.996921 0.0784138 530.797 989.807)" fill="#00FFF0" fill-opacity="0.5"/>
<rect x="418.118" y="1041.58" width="2.37476" height="2.37476" transform="rotate(-85.503 418.118 1041.58)" fill="#00FFF0" fill-opacity="0.5"/>
<rect x="340.278" y="1188.06" width="4.33199" height="4.33199" transform="rotate(-120.813 340.278 1188.06)" fill="#0500FF" fill-opacity="0.5"/>
<rect x="295.956" y="1088.79" width="3.02452" height="3.02452" transform="rotate(-85.503 295.956 1088.79)" fill="#00D1FF" fill-opacity="0.6"/>
<rect x="325.649" y="1113.01" width="8.15041" height="8.15041" transform="rotate(-85.503 325.649 1113.01)" fill="#6100FF" fill-opacity="0.5"/>
<g opacity="0.5">
<rect x="121.404" y="804.048" width="3.27281" height="3.27281" transform="rotate(-85.5031 121.404 804.048)" fill="#00FFF0" fill-opacity="0.6"/>
<rect width="3.68718" height="3.68718" transform="matrix(0.0784151 -0.996921 0.996922 0.0783971 92.6191 1019.91)" fill="#00FFF0"/>
<rect width="4.33199" height="4.33199" transform="matrix(0.0783982 -0.996922 0.996921 0.078414 50.5119 704.218)" fill="#00FFF0"/>
<rect x="367.366" y="873.827" width="4.33199" height="4.33199" transform="rotate(-85.5031 367.366 873.827)" fill="#00FFF0" fill-opacity="0.5"/>
<rect x="254.689" y="925.599" width="2.37476" height="2.37476" transform="rotate(-85.5031 254.689 925.599)" fill="#00FFF0" fill-opacity="0.5"/>
<rect x="176.849" y="1072.08" width="4.33199" height="4.33199" transform="rotate(-120.813 176.849 1072.08)" fill="#0500FF" fill-opacity="0.5"/>
<rect x="132.527" y="972.809" width="3.02452" height="3.02452" transform="rotate(-85.5031 132.527 972.809)" fill="#00D1FF" fill-opacity="0.6"/>
<rect width="8.15041" height="8.15041" transform="matrix(0.0784018 -0.996922 0.996921 0.0784103 162.22 997.036)" fill="#6100FF" fill-opacity="0.5"/>
</g>
<defs>
<linearGradient id="paint0_linear_19_1261" x1="142.352" y1="682.982" x2="443.713" y2="1035.79" gradientUnits="userSpaceOnUse">
<stop stop-color="#8FBCFF" stop-opacity="0.6"/>
<stop offset="1" stop-color="#8FBCFF" stop-opacity="0"/>
</linearGradient>
<linearGradient id="paint1_linear_19_1261" x1="204.199" y1="755.393" x2="594.943" y2="1212.85" gradientUnits="userSpaceOnUse">
<stop stop-color="#8FBCFF" stop-opacity="0.6"/>
<stop offset="1" stop-color="#8FBCFF" stop-opacity="0"/>
</linearGradient>
<linearGradient id="paint2_linear_19_1261" x1="60.7622" y1="587.466" x2="473.847" y2="1071.07" gradientUnits="userSpaceOnUse">
<stop stop-color="white" stop-opacity="0.6"/>
<stop offset="0.34375" stop-color="#8FBCFF" stop-opacity="0.6"/>
<stop offset="1" stop-color="#8FBCFF" stop-opacity="0"/>
</linearGradient>
<linearGradient id="paint3_linear_19_1261" x1="438.2" y1="591.95" x2="477.322" y2="761.402" gradientUnits="userSpaceOnUse">
<stop stop-color="#FF48D7"/>
<stop offset="0.234164" stop-color="white" stop-opacity="0.765836"/>
<stop offset="1" stop-color="#FF48D7" stop-opacity="0"/>
</linearGradient>
<linearGradient id="paint4_linear_19_1261" x1="108.399" y1="643.236" x2="407.465" y2="993.36" gradientUnits="userSpaceOnUse">
<stop stop-color="#8FBCFF" stop-opacity="0.6"/>
<stop offset="1" stop-color="#8FBCFF" stop-opacity="0"/>
</linearGradient>
</defs>
</svg>
